<svg xmlns="http://www.w3.org/2000/svg" viewBox="0 0 512 512">
  <defs>
    <!-- Background gradient - magical purple/blue -->
    <linearGradient id="bgGradient" x1="0%" y1="0%" x2="100%" y2="100%">
      <stop offset="0%" style="stop-color:#667eea"/>
      <stop offset="100%" style="stop-color:#764ba2"/>
    </linearGradient>
    <!-- Gold gradient for dauber marks -->
    <linearGradient id="goldGradient" x1="0%" y1="0%" x2="100%" y2="100%">
      <stop offset="0%" style="stop-color:#f5af19"/>
      <stop offset="100%" style="stop-color:#f12711"/>
    </linearGradient>
  </defs>
  
  <!-- Rounded background -->
  <rect x="0" y="0" width="512" height="512" rx="90" ry="90" fill="url(#bgGradient)"/>
  
  <!-- Bingo card background (slightly rounded white card) -->
  <rect x="56" y="56" width="400" height="400" rx="20" ry="20" fill="white" opacity="0.95"/>
  
  <!-- 5x5 Grid lines -->
  <g stroke="#667eea" stroke-width="3" fill="none" opacity="0.3">
    <!-- Vertical lines -->
    <line x1="136" y1="56" x2="136" y2="456"/>
    <line x1="216" y1="56" x2="216" y2="456"/>
    <line x1="296" y1="56" x2="296" y2="456"/>
    <line x1="376" y1="56" x2="376" y2="456"/>
    <!-- Horizontal lines -->
    <line x1="56" y1="136" x2="456" y2="136"/>
    <line x1="56" y1="216" x2="456" y2="216"/>
    <line x1="56" y1="296" x2="456" y2="296"/>
    <line x1="56" y1="376" x2="456" y2="376"/>
  </g>
  
  <!-- Daubed/marked squares (showing bingo progress) -->
  <g fill="url(#goldGradient)" opacity="0.85">
    <!-- Top left -->
    <circle cx="96" cy="96" r="30"/>
    <!-- Row 2, col 3 -->
    <circle cx="256" cy="176" r="30"/>
    <!-- Row 4, col 2 -->
    <circle cx="176" cy="336" r="30"/>
    <!-- Row 5, col 5 -->
    <circle cx="416" cy="416" r="30"/>
    <!-- Row 3, col 1 -->
    <circle cx="96" cy="256" r="30"/>
  </g>
  
  <!-- Castle silhouette in center (free space) -->
  <g fill="#667eea">
    <!-- Castle base -->
    <rect x="226" y="280" width="60" height="40" rx="2"/>
    <!-- Castle door -->
    <path d="M248 320 L248 295 Q256 285 264 295 L264 320 Z" fill="white"/>
    <!-- Main towers -->
    <rect x="220" y="250" width="16" height="35"/>
    <rect x="276" y="250" width="16" height="35"/>
    <!-- Center tower (taller) -->
    <rect x="244" y="230" width="24" height="55"/>
    <!-- Tower tops (pointed) -->
    <polygon points="228,250 220,235 236,235"/>
    <polygon points="284,250 276,235 292,235"/>
    <polygon points="256,230 240,215 272,215"/>
    <!-- Flags on towers -->
    <line x1="228" y1="235" x2="228" y2="220" stroke="#f5af19" stroke-width="2"/>
    <polygon points="228,220 228,228 238,224" fill="#f5af19"/>
    <line x1="284" y1="235" x2="284" y2="220" stroke="#f5af19" stroke-width="2"/>
    <polygon points="284,220 284,228 294,224" fill="#f5af19"/>
    <line x1="256" y1="215" x2="256" y2="195" stroke="#f5af19" stroke-width="3"/>
    <polygon points="256,195 256,208 270,201" fill="#f5af19"/>
  </g>
</svg>
