<svg xmlns="http://www.w3.org/2000/svg" viewBox="0 0 108 108">
  <defs>
    <!-- Gold gradient for dauber marks -->
    <linearGradient id="goldGradient" x1="0%" y1="0%" x2="100%" y2="100%">
      <stop offset="0%" style="stop-color:#f5af19"/>
      <stop offset="100%" style="stop-color:#f12711"/>
    </linearGradient>
  </defs>
  
  <!-- Centered bingo card (safe zone is 66x66 centered in 108x108) -->
  <g transform="translate(54, 54)">
    <!-- Bingo card background -->
    <rect x="-28" y="-28" width="56" height="56" rx="4" fill="white" opacity="0.95"/>
    
    <!-- 5x5 Grid lines -->
    <g stroke="#667eea" stroke-width="0.5" fill="none" opacity="0.3">
      <line x1="-16.8" y1="-28" x2="-16.8" y2="28"/>
      <line x1="-5.6" y1="-28" x2="-5.6" y2="28"/>
      <line x1="5.6" y1="-28" x2="5.6" y2="28"/>
      <line x1="16.8" y1="-28" x2="16.8" y2="28"/>
      <line x1="-28" y1="-16.8" x2="28" y2="-16.8"/>
      <line x1="-28" y1="-5.6" x2="28" y2="-5.6"/>
      <line x1="-28" y1="5.6" x2="28" y2="5.6"/>
      <line x1="-28" y1="16.8" x2="28" y2="16.8"/>
    </g>
    
    <!-- Daubed/marked squares -->
    <g fill="url(#goldGradient)" opacity="0.85">
      <circle cx="-22.4" cy="-22.4" r="4"/>
      <circle cx="0" cy="-11.2" r="4"/>
      <circle cx="-11.2" cy="11.2" r="4"/>
      <circle cx="22.4" cy="22.4" r="4"/>
      <circle cx="-22.4" cy="0" r="4"/>
    </g>
    
    <!-- Castle silhouette in center -->
    <g fill="#667eea" transform="scale(0.35)">
      <rect x="-30" y="20" width="60" height="40" rx="2"/>
      <path d="M-8 60 L-8 35 Q0 25 8 35 L8 60 Z" fill="white"/>
      <rect x="-36" y="-10" width="16" height="35"/>
      <rect x="20" y="-10" width="16" height="35"/>
      <rect x="-12" y="-30" width="24" height="55"/>
      <polygon points="-28,-10 -36,-25 -20,-25"/>
      <polygon points="28,-10 20,-25 36,-25"/>
      <polygon points="0,-30 -16,-45 16,-45"/>
      <line x1="-28" y1="-25" x2="-28" y2="-40" stroke="#f5af19" stroke-width="3"/>
      <polygon points="-28,-40 -28,-32 -18,-36" fill="#f5af19"/>
      <line x1="28" y1="-25" x2="28" y2="-40" stroke="#f5af19" stroke-width="3"/>
      <polygon points="28,-40 28,-32 38,-36" fill="#f5af19"/>
      <line x1="0" y1="-45" x2="0" y2="-65" stroke="#f5af19" stroke-width="4"/>
      <polygon points="0,-65 0,-52 14,-58" fill="#f5af19"/>
    </g>
  </g>
</svg>
