<svg xmlns="http://www.w3.org/2000/svg" viewBox="0 0 1024 1024">
  <defs>
    <linearGradient id="bgGradient" x1="0%" y1="0%" x2="100%" y2="100%">
      <stop offset="0%" style="stop-color:#4f46e5"/>
      <stop offset="100%" style="stop-color:#7c3aed"/>
    </linearGradient>
    <linearGradient id="cardGradient" x1="0%" y1="0%" x2="0%" y2="100%">
      <stop offset="0%" style="stop-color:#ffffff"/>
      <stop offset="100%" style="stop-color:#f1f5f9"/>
    </linearGradient>
    <linearGradient id="castleGradient" x1="0%" y1="0%" x2="0%" y2="100%">
      <stop offset="0%" style="stop-color:#f59e0b"/>
      <stop offset="100%" style="stop-color:#d97706"/>
    </linearGradient>
  </defs>
  
  <rect width="1024" height="1024" rx="200" fill="url(#bgGradient)"/>
  
  <rect x="162" y="280" width="700" height="540" rx="40" fill="url(#cardGradient)" opacity="0.95"/>
  
  <g transform="translate(192, 320)">
    <rect x="0" y="0" width="120" height="90" rx="12" fill="#e0e7ff" stroke="#4f46e5" stroke-width="3"/>
    <rect x="130" y="0" width="120" height="90" rx="12" fill="#22c55e" stroke="#16a34a" stroke-width="3"/>
    <rect x="260" y="0" width="120" height="90" rx="12" fill="#e0e7ff" stroke="#4f46e5" stroke-width="3"/>
    <rect x="390" y="0" width="120" height="90" rx="12" fill="#22c55e" stroke="#16a34a" stroke-width="3"/>
    <rect x="520" y="0" width="120" height="90" rx="12" fill="#e0e7ff" stroke="#4f46e5" stroke-width="3"/>
    
    <rect x="0" y="100" width="120" height="90" rx="12" fill="#e0e7ff" stroke="#4f46e5" stroke-width="3"/>
    <rect x="130" y="100" width="120" height="90" rx="12" fill="#e0e7ff" stroke="#4f46e5" stroke-width="3"/>
    <rect x="260" y="100" width="120" height="90" rx="12" fill="#22c55e" stroke="#16a34a" stroke-width="3"/>
    <rect x="390" y="100" width="120" height="90" rx="12" fill="#e0e7ff" stroke="#4f46e5" stroke-width="3"/>
    <rect x="520" y="100" width="120" height="90" rx="12" fill="#22c55e" stroke="#16a34a" stroke-width="3"/>
    
    <rect x="0" y="200" width="120" height="90" rx="12" fill="#22c55e" stroke="#16a34a" stroke-width="3"/>
    <rect x="130" y="200" width="120" height="90" rx="12" fill="#e0e7ff" stroke="#4f46e5" stroke-width="3"/>
    <rect x="260" y="200" width="120" height="90" rx="12" fill="url(#castleGradient)" stroke="#d97706" stroke-width="4"/>
    <rect x="390" y="200" width="120" height="90" rx="12" fill="#e0e7ff" stroke="#4f46e5" stroke-width="3"/>
    <rect x="520" y="200" width="120" height="90" rx="12" fill="#22c55e" stroke="#16a34a" stroke-width="3"/>
    
    <rect x="0" y="300" width="120" height="90" rx="12" fill="#e0e7ff" stroke="#4f46e5" stroke-width="3"/>
    <rect x="130" y="300" width="120" height="90" rx="12" fill="#22c55e" stroke="#16a34a" stroke-width="3"/>
    <rect x="260" y="300" width="120" height="90" rx="12" fill="#e0e7ff" stroke="#4f46e5" stroke-width="3"/>
    <rect x="390" y="300" width="120" height="90" rx="12" fill="#22c55e" stroke="#16a34a" stroke-width="3"/>
    <rect x="520" y="300" width="120" height="90" rx="12" fill="#e0e7ff" stroke="#4f46e5" stroke-width="3"/>
    
    <rect x="0" y="400" width="120" height="90" rx="12" fill="#22c55e" stroke="#16a34a" stroke-width="3"/>
    <rect x="130" y="400" width="120" height="90" rx="12" fill="#e0e7ff" stroke="#4f46e5" stroke-width="3"/>
    <rect x="260" y="400" width="120" height="90" rx="12" fill="#22c55e" stroke="#16a34a" stroke-width="3"/>
    <rect x="390" y="400" width="120" height="90" rx="12" fill="#e0e7ff" stroke="#4f46e5" stroke-width="3"/>
    <rect x="520" y="400" width="120" height="90" rx="12" fill="#22c55e" stroke="#16a34a" stroke-width="3"/>
    
    <path d="M280 230 L280 260 L360 260 L360 230 L340 230 L340 215 L330 215 L330 205 L310 205 L310 215 L300 215 L300 230 Z" fill="white"/>
    <rect x="312" y="245" width="16" height="15" fill="#d97706"/>
  </g>
  
  <text x="512" y="200" font-family="Arial Black, Arial" font-size="100" font-weight="900" fill="white" text-anchor="middle" letter-spacing="20">BINGO</text>
</svg>
